<svg id="visual" viewBox="0 0 900 600" width="900" height="600" xmlns="http://www.w3.org/2000/svg" xmlns:xlink="http://www.w3.org/1999/xlink" version="1.1"><rect x="0" y="0" width="900" height="600" fill="#001220"></rect><path d="M0 387L21.5 396.8C43 406.7 86 426.3 128.8 426.8C171.7 427.3 214.3 408.7 257.2 401.8C300 395 343 400 385.8 396.5C428.7 393 471.3 381 514.2 383.7C557 386.3 600 403.7 642.8 416.5C685.7 429.3 728.3 437.7 771.2 441.5C814 445.3 857 444.7 878.5 444.3L900 444L900 601L878.5 601C857 601 814 601 771.2 601C728.3 601 685.7 601 642.8 601C600 601 557 601 514.2 601C471.3 601 428.7 601 385.8 601C343 601 300 601 257.2 601C214.3 601 171.7 601 128.8 601C86 601 43 601 21.5 601L0 601Z" fill="#fa7268"></path><path d="M0 443L21.5 440.8C43 438.7 86 434.3 128.8 428.2C171.7 422 214.3 414 257.2 420C300 426 343 446 385.8 443.8C428.7 441.7 471.3 417.3 514.2 416.8C557 416.3 600 439.7 642.8 443.2C685.7 446.7 728.3 430.3 771.2 430.7C814 431 857 448 878.5 456.5L900 465L900 601L878.5 601C857 601 814 601 771.2 601C728.3 601 685.7 601 642.8 601C600 601 557 601 514.2 601C471.3 601 428.7 601 385.8 601C343 601 300 601 257.2 601C214.3 601 171.7 601 128.8 601C86 601 43 601 21.5 601L0 601Z" fill="#ef5f67"></path><path d="M0 480L21.5 474.7C43 469.3 86 458.7 128.8 458C171.7 457.3 214.3 466.7 257.2 468C300 469.3 343 462.7 385.8 468.5C428.7 474.3 471.3 492.7 514.2 498.3C557 504 600 497 642.8 490.7C685.7 484.3 728.3 478.7 771.2 469.8C814 461 857 449 878.5 443L900 437L900 601L878.5 601C857 601 814 601 771.2 601C728.3 601 685.7 601 642.8 601C600 601 557 601 514.2 601C471.3 601 428.7 601 385.8 601C343 601 300 601 257.2 601C214.3 601 171.7 601 128.8 601C86 601 43 601 21.5 601L0 601Z" fill="#e34c67"></path><path d="M0 494L21.5 496.5C43 499 86 504 128.8 510.5C171.7 517 214.3 525 257.2 530.3C300 535.7 343 538.3 385.8 535.3C428.7 532.3 471.3 523.7 514.2 516.7C557 509.7 600 504.3 642.8 502.8C685.7 501.3 728.3 503.7 771.2 506.8C814 510 857 514 878.5 516L900 518L900 601L878.5 601C857 601 814 601 771.2 601C728.3 601 685.7 601 642.8 601C600 601 557 601 514.2 601C471.3 601 428.7 601 385.8 601C343 601 300 601 257.2 601C214.3 601 171.7 601 128.8 601C86 601 43 601 21.5 601L0 601Z" fill="#d53867"></path><path d="M0 526L21.5 532.3C43 538.7 86 551.3 128.8 552.7C171.7 554 214.3 544 257.2 545.3C300 546.7 343 559.3 385.8 560.3C428.7 561.3 471.3 550.7 514.2 545.5C557 540.3 600 540.7 642.8 544.2C685.7 547.7 728.3 554.3 771.2 557.7C814 561 857 561 878.5 561L900 561L900 601L878.5 601C857 601 814 601 771.2 601C728.3 601 685.7 601 642.8 601C600 601 557 601 514.2 601C471.3 601 428.7 601 385.8 601C343 601 300 601 257.2 601C214.3 601 171.7 601 128.8 601C86 601 43 601 21.5 601L0 601Z" fill="#c62368"></path></svg>